<svg xmlns="http://www.w3.org/2000/svg" viewBox="0 0 359.82 82.56"><defs><style>.a{isolation:isolate;}.b{fill:#00b7ee;}.c{fill:#f29c9f;}.d{fill:#f6b37f;}.e{fill:#b3d465;}.f{fill:#fff;}.g{fill:#444;}</style></defs><title>whereareyo2u</title><g class="a"><ellipse class="b" cx="239.72" cy="41.28" rx="41.28" ry="41.28" transform="translate(-0.07 0.42) rotate(-0.1)"/></g><g class="a"><ellipse class="c" cx="177.25" cy="41.28" rx="41.28" ry="41.28" transform="translate(135.66 218.46) rotate(-89.9)"/></g><g class="a"><ellipse class="d" cx="108.17" cy="41.28" rx="41.28" ry="41.28" transform="translate(66.7 149.37) rotate(-89.9)"/></g><g class="a"><ellipse class="e" cx="41.28" cy="41.28" rx="41.28" ry="41.28" transform="translate(-0.07 82.49) rotate(-89.9)"/></g><path class="f" d="M33.14,64.61c-6.93,0-13.37-7-13.37-32.2a48.58,48.58,0,0,1,.49-7.59,4.28,4.28,0,0,1,4.46-3.64c2.15,0,4.24,1.27,4.24,3.64a2,2,0,0,1-.06.6,78.25,78.25,0,0,0-.77,10.84c0,5.4.61,18.83,5.29,18.83,2.36,0,4.51-3,6.93-8.37A2.88,2.88,0,0,1,43,44.79,2.82,2.82,0,0,1,45.8,47.6c0,2-6,16.35-11.45,16.95A8.11,8.11,0,0,1,33.14,64.61ZM59,52.55C58,43.47,56.15,33.73,50.64,27a2.84,2.84,0,0,1-.71-1.76,2.55,2.55,0,0,1,2.75-2.32,4,4,0,0,1,2.92,1.38C63,32.25,67.32,40.23,68.37,51.4c0,.22,0,.49,0,.71,0,3.42-2.36,5.18-4.73,5.18C61.49,57.29,59.29,55.75,59,52.55Z" transform="translate(0 0)"/><path class="f" d="M106.9,40.23c-2.14,0-4.29.05-6.27.05-3.52,0-6.83-.05-9.69-.16a2.69,2.69,0,0,1-2.59-2.7,2.57,2.57,0,0,1,2.81-2.53h.11c2.7,0,5.78.11,9.08.11,2,0,4.19,0,6.39-.06l-.17-6.11c-2.42,0-4.73.06-7,.06-3.9,0-7.48-.06-10.4-.17A2.61,2.61,0,0,1,86.65,26a2.54,2.54,0,0,1,2.81-2.54h.11c3.24.06,7.43.11,11.88.11h5c0-3,0-3.63,0-4a3.71,3.71,0,0,1,4-3.64c2.14,0,4.29,1.27,4.29,3.8V20c-.06,1.1-.11,2.2-.11,3.47,4.57-.11,9-.22,12.82-.33h.11a2.77,2.77,0,0,1,3,2.75,2.67,2.67,0,0,1-2.91,2.64c-3.91.11-8.42.22-13,.28,0,2,.06,4,.11,6L127,34.45h.11a2.77,2.77,0,0,1,3,2.75,2.66,2.66,0,0,1-2.86,2.59c-3.91.11-8.14.16-12.44.27.11,3.14.17,6,.22,8.59,4.52,1.48,11.23,4.67,15.08,8.25a3.7,3.7,0,0,1,1.33,2.7,3.5,3.5,0,0,1-3.25,3.47,2.51,2.51,0,0,1-1.93-.94A41.48,41.48,0,0,0,114.94,54c-.28,3.35-1.76,11.17-14.53,11.17-7.32,0-12.72-4.51-12.72-9.58,0-4.35,3.25-9.35,13.82-9.35h1.71a17.61,17.61,0,0,1,3.85.27ZM101.23,51c-4.07,0-8,.93-8,3.69,0,2.36,3.86,3.63,7.1,3.63a6.67,6.67,0,0,0,7-6.61A24.3,24.3,0,0,0,101.23,51Z" transform="translate(0 0)"/><path class="f" d="M166.08,22.61V21.24c0-2.75,2.75-4.24,5.28-4.24,2.26,0,4.35,1.21,4.35,3.69v.38c-.11,1.21-.17,2.53-.17,3.91a72.77,72.77,0,0,0,.55,8.81,111.78,111.78,0,0,1,15.47-1.88c2.42,0,3.47,1.33,3.47,2.7a2.83,2.83,0,0,1-2.7,2.86c-23.5.94-31,6.55-31,13.16,0,4.29,5.62,6.49,14.7,6.49a86.42,86.42,0,0,0,14.47-1.59,7.71,7.71,0,0,1,1.16-.11,4.11,4.11,0,0,1,4.4,4.07c0,1.87-1.37,3.85-4.29,4.51a67.76,67.76,0,0,1-13.65,1.38c-8.42,0-23.39-2.37-23.39-14.53,0-7.65,6.27-11.89,12.44-14.37A93.13,93.13,0,0,1,166.08,22.61Zm24.88,7a3.08,3.08,0,0,1-2.7-1.7c-.77-1.38-2.15-3.47-3-4.63a2.47,2.47,0,0,1-.55-1.54,2,2,0,0,1,2-2c1.1,0,2.64.82,6.44,5.67a2.67,2.67,0,0,1,.61,1.65A2.76,2.76,0,0,1,191,29.6Zm6.43-2.75a3,3,0,0,1-2.58-1.59c-.66-1.05-2-3.2-2.75-4.19a2.52,2.52,0,0,1-.61-1.54,1.82,1.82,0,0,1,1.93-1.76c1.7,0,6.6,4.35,6.6,6.6A2.52,2.52,0,0,1,197.39,26.85Z" transform="translate(0 0)"/><path class="f" d="M258.33,63.73a64.11,64.11,0,0,1-12.27,1.15c-20,0-25.81-6.82-25.81-13.43,0-4.34,2.09-9.52,5.39-9.52a3.08,3.08,0,0,1,3.14,2.75,2,2,0,0,1-.5,1.27A5.2,5.2,0,0,0,227,49.31c0,2.47,1.82,7.37,14.86,7.37a92.54,92.54,0,0,0,15.47-1.54,9,9,0,0,1,1.15-.11c2.92,0,4.73,2,4.73,4.13C263.17,61.09,261.74,63.07,258.33,63.73Zm-1.21-35.39c-.16,0-.33-.06-.55-.06a123.23,123.23,0,0,0-15.36-.88,136.76,136.76,0,0,0-15.3.83c-.16,0-.33.05-.49.05a2.94,2.94,0,0,1-3.08-3,3,3,0,0,1,3-3,160,160,0,0,1,17-.88,112.28,112.28,0,0,1,14.8.83c2.26.27,3.25,1.7,3.25,3.08A3.08,3.08,0,0,1,257.12,28.34Z" transform="translate(0 0)"/><path class="g" d="M314.1,51.84a12,12,0,0,0,6.82,4.59,2.37,2.37,0,0,1,1.87,2.24,2.75,2.75,0,0,1-2.86,2.64c-1.76,0-6.42-2.53-8.44-8.07-3.37,7.08-11.92,8.26-12.22,8.26a1.52,1.52,0,0,1-.51-3c4.15-1.28,7-3.48,8.44-6.68h-3c-2.28,0-3.67-.73-3.67-3V44.61a2.09,2.09,0,0,1-1.84,1.29,1.46,1.46,0,0,1-1.46-1.25c-.26-1-.55-2-.85-3V59.11a2.4,2.4,0,0,1-2.49,2.5,2.19,2.19,0,0,1-2.31-2.24v-.11l.07-3.16c.07-2.9.29-8,.4-10.79a20.75,20.75,0,0,1-1.5,4c-1,1.69-1.14,2.06-2.06,2.06a1.59,1.59,0,0,1-1.54-1.58,1.72,1.72,0,0,1,.19-.84,53.61,53.61,0,0,0,3.92-12.7H289.4a1.61,1.61,0,1,1,0-3.2h2.24l0-4.1A2.28,2.28,0,0,1,294,26.63,2.24,2.24,0,0,1,296.37,29v4.1h2.13a1.61,1.61,0,1,1,0,3.2h-2.13v2a1.59,1.59,0,0,1,.41-.07,1.38,1.38,0,0,1,1.06.55,22.71,22.71,0,0,1,2.53,4,1.44,1.44,0,0,1,.15.37c0-2.2,1.32-3.08,3.67-3.08h4.11V38h-1.58a1.42,1.42,0,0,1-1.47-1.21c-2.79,2-3.63,2.46-4.4,2.46a1.65,1.65,0,0,1-1.69-1.62,1.68,1.68,0,0,1,.81-1.43,26.75,26.75,0,0,0,7.56-8.29,3,3,0,0,1,2.6-1.29,3.48,3.48,0,0,1,2.43,1c2.49,2.64,5.39,4.95,7.89,5.87a2.53,2.53,0,0,1,1.9,2.31,2.74,2.74,0,0,1-2.71,2.64,4.38,4.38,0,0,1-2.72-1.21,1.43,1.43,0,0,1-1.32.81h-2.68v2h4.26c2.39,0,3.56,1.1,3.56,3.19v5.1a3.24,3.24,0,0,1-3.6,3.52ZM308,49a15.22,15.22,0,0,0,.26-2.68V42.85h-2.24a.94.94,0,0,0-.95.88v4.48c0,.51.33.81.95.81Zm6.57-13.87a25.22,25.22,0,0,1-2.79-3.42.32.32,0,0,0-.29-.14.49.49,0,0,0-.29.11,32.76,32.76,0,0,1-3.78,3.45Zm1.69,8.58a.89.89,0,0,0-.84-.88h-2.54v3.56a20.43,20.43,0,0,1-.18,2.61h2.72a.85.85,0,0,0,.84-.81Z" transform="translate(0 0)"/><path class="g" d="M345.8,59a2.68,2.68,0,0,1-5.35,0v0l.11-7.12c-3.31.33-6.76.58-10.32.77a2.4,2.4,0,0,1-2.71-2.2c0-1,.73-1.91,2.35-1.91h4.73c.88-.48,1.76-.92,2.57-1.36l-.11-.07a39.11,39.11,0,0,0-4.44-3,1.53,1.53,0,0,1-.92-1.35V42.6a3.24,3.24,0,0,1-2,.66,2.65,2.65,0,0,1-2.9-2.54V38.23c0-2.09,1.66-3.41,4.45-3.41h9.17V32.54H328.74a1.63,1.63,0,1,1,0-3.23h11.67V29.2a2.79,2.79,0,0,1,5.58,0v.11h11.89a1.63,1.63,0,1,1,0,3.23H346v2.28h9.28c2.79,0,4.55,1.28,4.55,3.45v2.31A2.57,2.57,0,0,1,357,43.07a2.62,2.62,0,0,1-2.9-2.49v-1.8a1,1,0,0,0-1.14-1h-8.88a2.21,2.21,0,0,1,.81,1.58c0,.62-.11,1.43-5.62,3.82l.19.07A2,2,0,0,1,340.78,45c0,.07,0,.14,0,.21a54.69,54.69,0,0,0,7.19-4.73,2.86,2.86,0,0,1,1.84-.7,2.54,2.54,0,0,1,2.53,2.35,2,2,0,0,1-1.25,1.8,99.41,99.41,0,0,1-10.71,4.51c3.85-.11,7.41-.25,11.34-.55-.41-.33-.81-.62-1.25-.91a1.53,1.53,0,0,1-.81-1.32,1.56,1.56,0,0,1,1.65-1.47c.77,0,7.75,2.53,7.75,5.32A2.53,2.53,0,0,1,356.59,52c-.77,0-1.13-.11-2.6-1.79-2.68.4-5.43.77-8.3,1.1l.11,7.67Zm-17,1.69A1.69,1.69,0,0,1,327,59a2.09,2.09,0,0,1,1.36-1.8A20.27,20.27,0,0,0,334,53.46a2.85,2.85,0,0,1,1.95-.85,2.6,2.6,0,0,1,2.6,2.54,2.93,2.93,0,0,1-1.8,2.49C333.77,59.26,329.73,60.65,328.81,60.65Zm4.85-22.9a1,1,0,0,0-1.1,1v1.94a2.77,2.77,0,0,1-.11.78,1.89,1.89,0,0,1,.84-.19,16,16,0,0,1,2.64.59,34.05,34.05,0,0,0,4.22-4.15Zm23,22.46a3.16,3.16,0,0,1-1.94-.73A32.09,32.09,0,0,0,349,55.77a1.88,1.88,0,0,1-1.18-1.65,1.82,1.82,0,0,1,1.91-1.76c1.28,0,6.2,1.72,7.49,2.31,1.65.73,2.27,1.83,2.27,2.86A2.79,2.79,0,0,1,356.7,60.21Z" transform="translate(0 0)"/></svg>